<?xml version="1.0" encoding="UTF-8"?>
<svg version="1.1" xmlns="http://www.w3.org/2000/svg" width="125" height="142">
<path d="M0 0 C41.25 0 82.5 0 125 0 C125 46.86 125 93.72 125 142 C83.75 142 42.5 142 0 142 C0 95.14 0 48.28 0 0 Z " fill="#FCFDFD" transform="translate(0,0)"/>
<path d="M0 0 C3.49472611 1.39789045 6.44993488 2.71716195 9.67578125 4.546875 C11.02470459 5.30991943 11.02470459 5.30991943 12.40087891 6.08837891 C13.36171387 6.63671387 14.32254883 7.18504883 15.3125 7.75 C16.31200684 8.3176709 17.31151367 8.8853418 18.34130859 9.47021484 C49.19268568 27.03856008 49.19268568 27.03856008 54.49560547 30.74365234 C56.89925899 32.20597693 56.89925899 32.20597693 59.4519043 31.8815918 C62.45670252 30.84198977 65.01661294 29.48952379 67.76953125 27.89453125 C68.89496338 27.24685791 70.02039551 26.59918457 71.17993164 25.93188477 C72.39085802 25.22554362 73.60171259 24.51907934 74.8125 23.8125 C76.05750965 23.09305969 77.30287525 22.37423502 78.54858398 21.65600586 C84.73911187 18.08117716 90.90893971 14.47086914 97.078125 10.859375 C98.17278076 10.21895264 99.26743652 9.57853027 100.39526367 8.91870117 C102.47300457 7.70101336 104.5487623 6.47993399 106.62231445 5.25512695 C108.01776489 4.43467896 108.01776489 4.43467896 109.44140625 3.59765625 C110.25295166 3.11820557 111.06449707 2.63875488 111.90063477 2.14477539 C114 1 114 1 117 0 C117.44229375 8.67447889 117.77875012 17.34503178 117.98443127 26.02836323 C118.08321999 30.06212811 118.21678488 34.0881365 118.43334961 38.11743164 C119.80156165 64.22158451 119.80156165 64.22158451 115.08990479 70.57611084 C110.50010056 74.541468 103.33847061 79 97 79 C97 64.81 97 50.62 97 36 C88.19019975 41.03979013 88.19019975 41.03979013 79.38110352 46.08081055 C77.64681181 47.0723896 75.91231056 48.06362101 74.17420959 49.04850769 C71.51360946 50.55649902 68.86941092 52.07953449 66.25732422 53.67041016 C65.48018066 54.13624512 64.70303711 54.60208008 63.90234375 55.08203125 C63.25644287 55.48268799 62.61054199 55.88334473 61.94506836 56.29614258 C59.22316526 57.2811114 57.75238224 56.86160641 55 56 C52.98718222 54.98978877 51.01264805 53.90158487 49.0703125 52.76171875 C47.38228516 51.77848633 47.38228516 51.77848633 45.66015625 50.77539062 C44.48165324 50.07962623 43.30326865 49.38366121 42.125 48.6875 C40.95481298 48.00259547 39.78424317 47.31834449 38.61328125 46.63476562 C36.44093692 45.3648752 34.27032191 44.0920183 32.10205078 42.81518555 C28.74857844 40.85287901 25.37348202 38.92770401 22 37 C21.67 50.86 21.34 64.72 21 79 C13.66301032 76.06520413 6.88734654 71.87413243 0 68 C0 45.56 0 23.12 0 0 Z " fill="#0962AA" transform="translate(6,40)"/>
<path d="M0 0 C1.81952641 0.87018594 3.60485887 1.81382088 5.359375 2.80859375 C6.38514648 3.38633545 7.41091797 3.96407715 8.46777344 4.55932617 C9.5509082 5.17912354 10.63404297 5.7989209 11.75 6.4375 C13.41724121 7.381698 13.41724121 7.381698 15.11816406 8.3449707 C24.13592993 13.46645237 33.09723556 18.68132969 42 24 C42.97453125 24.54269531 43.9490625 25.08539063 44.953125 25.64453125 C45.62859375 26.09183594 46.3040625 26.53914063 47 27 C47 27.66 47 28.32 47 29 C44.09114752 30.68059086 41.17175106 32.34195109 38.25 34 C37.425 34.47695313 36.6 34.95390625 35.75 35.4453125 C34.95078125 35.89648438 34.1515625 36.34765625 33.328125 36.8125 C32.5949707 37.23144531 31.86181641 37.65039062 31.10644531 38.08203125 C29 39 29 39 25 39 C22.73046875 38.00390625 22.73046875 38.00390625 20.1875 36.5625 C19.2284375 36.02625 18.269375 35.49 17.28125 34.9375 C14.87364938 33.51586916 12.51169947 32.06567949 10.15625 30.5625 C9.16975464 29.94266235 9.16975464 29.94266235 8.16333008 29.31030273 C6.86701361 28.49163556 5.57989024 27.65818795 4.3034668 26.80883789 C1.4282787 24.9971652 -0.4212051 23.95932819 -3.859375 24.20092773 C-7.26565416 25.06759065 -9.72327186 26.31454214 -12.73046875 28.125 C-13.78041016 28.74890625 -14.83035156 29.3728125 -15.91210938 30.015625 C-16.99298828 30.67046875 -18.07386719 31.3253125 -19.1875 32 C-21.34626726 33.29398675 -23.50636265 34.58576112 -25.66796875 35.875 C-27.09532349 36.73738281 -27.09532349 36.73738281 -28.55151367 37.6171875 C-31 39 -31 39 -34 40 C-36.0847168 39.10375977 -36.0847168 39.10375977 -38.44921875 37.69140625 C-39.29677734 37.19189453 -40.14433594 36.69238281 -41.01757812 36.17773438 C-42.33918945 35.37819336 -42.33918945 35.37819336 -43.6875 34.5625 C-44.58017578 34.03333984 -45.47285156 33.50417969 -46.39257812 32.95898438 C-48.60063292 31.64832083 -50.80260395 30.3284301 -53 29 C-51.78416075 25.35248225 -50.99712003 25.14744257 -47.71484375 23.35546875 C-46.8026709 22.84967285 -45.89049805 22.34387695 -44.95068359 21.82275391 C-43.45915771 21.01330322 -43.45915771 21.01330322 -41.9375 20.1875 C-39.84384297 19.03474537 -37.75143598 17.87971807 -35.66015625 16.72265625 C-34.56977051 16.11953613 -33.47938477 15.51641602 -32.35595703 14.89501953 C-28.97106042 12.98365859 -25.63638104 11.00505694 -22.30859375 8.99609375 C-21.2316626 8.34938721 -20.15473145 7.70268066 -19.04516602 7.03637695 C-16.9595901 5.77892806 -14.88041195 4.51079575 -12.80834961 3.23120117 C-11.85839111 2.66248291 -10.90843262 2.09376465 -9.9296875 1.5078125 C-9.09679199 0.99879395 -8.26389648 0.48977539 -7.40576172 -0.03466797 C-4.38771533 -1.24568435 -3.06783257 -1.01045809 0 0 Z " fill="#ADADAD" transform="translate(68,7)"/>
<path d="M0 0 C5.19416551 2.77997591 10.32881781 5.56404633 15.33984375 8.66015625 C16.46338257 9.34682373 16.46338257 9.34682373 17.60961914 10.04736328 C19.10452929 10.96470549 20.59225026 11.89388126 22.07202148 12.83544922 C22.76755127 13.25971191 23.46308105 13.68397461 24.1796875 14.12109375 C24.79569824 14.5070874 25.41170898 14.89308105 26.04638672 15.29077148 C28.77781838 16.28237471 30.23767155 15.8705862 33 15 C35.00196563 13.94592496 36.9620508 12.81046074 38.88671875 11.62109375 C40.5409082 10.61079102 40.5409082 10.61079102 42.22851562 9.58007812 C43.38186517 8.86645844 44.53485614 8.15225894 45.6875 7.4375 C47.95899616 6.03491668 50.23437176 4.63921569 52.51171875 3.24609375 C53.51678467 2.62404053 54.52185059 2.0019873 55.55737305 1.36108398 C58 0 58 0 60 0 C61.3776482 7.87956969 62.63915277 16.29153303 60 24 C54.92866299 29.81915049 47.60360295 32.86007409 40.62060547 35.83398438 C38.29110458 36.87047555 36.24309368 38.02508228 34.09765625 39.390625 C31 41 31 41 28.578125 41.046875 C24.73566962 39.48660524 21.28139662 37.41258979 17.75 35.25 C16.30798726 34.3790556 14.86527617 33.50926643 13.421875 32.640625 C12.78862305 32.25422852 12.15537109 31.86783203 11.50292969 31.46972656 C7.7094182 29.24216715 3.8455718 27.13642878 0 25 C0 16.75 0 8.5 0 0 Z " fill="#AEAEAE" transform="translate(35,100)"/>
<path d="M0 0 C0.66 0.33 1.32 0.66 2 1 C0.9024777 3.99324263 0.32317108 4.84610901 -2.625 6.25 C-3.40875 6.4975 -4.1925 6.745 -5 7 C-4.60196439 4.11424181 -4.20990931 3.17810487 -1.9375 1.25 C-1.298125 0.8375 -0.65875 0.425 0 0 Z " fill="#F2F2F2" transform="translate(100,107)"/>
</svg>
